<?xml version="1.0" standalone="no"?>
<!DOCTYPE svg PUBLIC "-//W3C//DTD SVG 20010904//EN"
 "http://www.w3.org/TR/2001/REC-SVG-20010904/DTD/svg10.dtd">
<svg version="1.0" xmlns="http://www.w3.org/2000/svg"
 width="1236.000000pt" height="1236.000000pt" viewBox="0 0 1236.000000 1236.000000"
 preserveAspectRatio="xMidYMid meet">

<g transform="translate(0.000000,1236.000000) scale(0.100000,-0.100000)"
fill="#000000" stroke="none">
<path d="M5465 10819 c-109 -25 -243 -39 -368 -39 -146 0 -165 -4 -233 -57
-35 -26 -176 -77 -244 -88 -25 -4 -92 -22 -149 -41 -57 -19 -113 -34 -124 -34
-11 0 -53 -18 -92 -40 -40 -21 -94 -44 -121 -51 -68 -16 -131 -49 -248 -127
-54 -37 -112 -76 -129 -86 -19 -12 -57 -22 -108 -26 -86 -8 -111 -22 -133 -75
-35 -82 -109 -129 -216 -137 -88 -7 -118 -25 -170 -100 -24 -35 -59 -83 -78
-107 -19 -24 -45 -68 -57 -97 -12 -30 -34 -67 -47 -82 -41 -43 -300 -295 -333
-322 -16 -14 -61 -60 -99 -103 -38 -43 -83 -85 -100 -94 -50 -25 -173 -121
-248 -192 -38 -36 -76 -70 -84 -74 -9 -5 -31 -41 -49 -80 -52 -109 -120 -228
-153 -267 -53 -65 -114 -170 -139 -242 -14 -39 -35 -87 -47 -107 -26 -44 -55
-108 -60 -137 -3 -12 -13 -39 -24 -60 -11 -22 -23 -50 -27 -64 -4 -14 -24 -54
-45 -90 -21 -36 -46 -96 -55 -135 -10 -38 -35 -113 -56 -166 -20 -52 -47 -135
-59 -184 -11 -49 -32 -108 -45 -131 -17 -29 -25 -58 -25 -91 0 -70 -25 -203
-59 -307 -63 -195 -71 -232 -71 -312 0 -43 -5 -99 -11 -124 -14 -59 -14 -637
0 -748 11 -88 61 -310 86 -379 8 -23 19 -89 25 -148 6 -65 21 -141 39 -198 43
-134 59 -180 96 -292 21 -66 36 -136 42 -202 10 -99 12 -106 90 -265 45 -90
93 -181 108 -203 15 -22 36 -60 47 -84 10 -25 36 -63 56 -86 45 -50 92 -117
152 -215 85 -139 100 -159 157 -215 32 -30 62 -59 66 -64 5 -5 43 -45 85 -88
91 -94 147 -160 192 -228 45 -69 524 -544 602 -596 35 -24 95 -69 134 -101 71
-57 157 -105 269 -149 47 -18 77 -41 142 -106 45 -45 95 -103 113 -128 34 -50
64 -66 160 -84 85 -17 104 -28 172 -98 31 -33 85 -74 118 -92 72 -39 111 -41
265 -15 86 14 118 14 235 4 82 -7 153 -19 180 -30 25 -10 100 -30 166 -43 72
-15 145 -38 180 -55 93 -47 174 -66 242 -57 31 4 174 7 317 6 362 -3 629 -1
840 6 111 3 194 2 217 -5 26 -7 59 -7 106 0 51 8 111 8 228 -2 310 -24 300
-25 394 6 47 15 103 40 125 54 22 15 83 42 135 60 113 38 221 92 271 135 45
38 171 119 263 168 39 21 98 55 131 76 82 53 185 111 275 156 63 32 98 60 212
175 75 76 143 152 152 168 15 28 147 135 243 195 21 14 67 53 102 87 34 34
102 88 150 120 97 64 122 93 171 193 35 71 80 118 174 181 53 35 106 88 168
166 20 25 51 61 70 80 54 55 85 109 102 177 8 35 27 86 41 113 14 28 39 88 54
133 61 175 92 251 123 306 17 31 50 92 73 136 22 44 55 107 72 140 35 67 53
140 53 218 0 77 14 114 68 176 67 77 107 153 126 238 19 84 19 83 7 83 -5 0
-12 -13 -16 -30 -4 -16 -11 -32 -16 -35 -5 -4 -9 -15 -9 -26 0 -10 -3 -18 -7
-17 -22 7 -122 -84 -123 -110 0 -7 -11 -29 -24 -49 -14 -19 -22 -42 -19 -49 3
-8 0 -14 -7 -14 -6 0 -10 -8 -9 -17 3 -33 -1 -44 -12 -37 -8 4 -9 -1 -4 -16 5
-15 3 -20 -3 -16 -15 9 -23 -9 -29 -62 -3 -26 -8 -49 -13 -52 -11 -7 -29 -77
-22 -84 3 -3 0 -6 -5 -6 -16 0 -73 -96 -75 -125 -1 -13 -5 -22 -8 -20 -6 3
-33 -59 -35 -77 0 -3 -9 -17 -20 -30 -40 -45 -55 -73 -55 -99 0 -14 -11 -48
-25 -75 -14 -27 -39 -89 -55 -137 -16 -49 -39 -101 -50 -117 -11 -15 -20 -38
-20 -49 0 -12 -9 -29 -19 -38 -11 -9 -18 -20 -15 -25 3 -4 -2 -8 -10 -8 -9 0
-16 -5 -16 -10 0 -12 -15 -32 -42 -58 -10 -9 -18 -22 -18 -29 0 -7 -7 -13 -15
-13 -8 0 -27 -19 -41 -42 -15 -24 -31 -45 -35 -46 -5 -2 -9 -8 -9 -13 0 -12
-35 -55 -92 -111 -27 -25 -48 -51 -48 -57 0 -6 -4 -11 -9 -11 -16 0 -185 -179
-221 -235 -38 -59 -45 -68 -60 -85 -50 -55 -70 -81 -70 -90 0 -5 -7 -10 -16
-10 -9 0 -12 -5 -8 -12 4 -6 3 -8 -4 -4 -11 6 -68 -41 -157 -131 -29 -29 -55
-53 -59 -53 -3 0 -37 -20 -76 -45 -39 -25 -73 -45 -76 -45 -12 0 -84 -55 -84
-65 0 -6 -14 -21 -31 -35 -17 -14 -36 -31 -43 -39 -33 -41 -93 -91 -108 -91
-10 0 -18 -4 -18 -10 0 -5 -7 -10 -15 -10 -8 0 -15 -4 -15 -10 0 -5 -6 -10
-13 -10 -7 0 -20 -9 -30 -20 -9 -11 -28 -20 -42 -20 -14 0 -25 -4 -25 -9 0
-10 -56 -41 -75 -41 -7 0 -32 -11 -56 -25 -24 -13 -72 -38 -106 -55 -34 -18
-67 -38 -74 -46 -6 -8 -18 -14 -25 -14 -8 0 -14 -3 -14 -7 0 -12 -52 -33 -64
-26 -6 3 -8 3 -4 -2 10 -11 -253 -115 -299 -119 -19 -1 -38 -8 -43 -16 -4 -7
-13 -10 -19 -6 -7 5 -9 1 -5 -8 6 -15 -6 -20 -43 -19 -7 1 -13 -2 -13 -7 0
-11 -49 -30 -80 -30 -16 0 -40 -4 -54 -10 -14 -5 -26 -8 -26 -5 0 4 100 50
132 60 148 46 656 323 803 439 11 9 49 37 85 63 36 26 70 54 77 63 7 8 13 12
13 8 0 -4 10 3 23 15 12 12 47 42 77 67 199 165 416 377 555 545 27 33 52 62
55 65 3 3 17 21 31 40 15 19 35 45 45 56 70 81 324 447 324 467 0 5 9 22 21
38 44 62 204 371 240 464 11 28 24 59 29 70 79 168 177 490 230 755 45 225 42
584 -5 656 -8 13 -15 36 -15 52 0 16 -7 35 -15 42 -8 7 -13 16 -10 20 3 4 -8
23 -23 43 -15 19 -36 48 -47 63 -11 16 -29 37 -40 49 -11 11 -19 23 -17 28 1
4 -9 13 -23 19 -14 6 -25 17 -25 25 0 7 -4 13 -10 13 -5 0 -10 7 -10 15 0 8
-4 15 -10 15 -5 0 -7 6 -4 14 3 7 -1 20 -9 28 -23 23 -56 98 -50 114 3 8 -1
14 -11 14 -11 0 -16 9 -16 33 0 18 -6 39 -12 46 -10 11 -10 13 0 7 6 -4 12 -3
12 3 0 5 -6 12 -12 15 -10 5 -10 7 0 12 9 4 10 10 3 18 -16 19 -19 255 -3 265
7 4 13 29 13 59 1 42 5 52 19 52 13 0 16 6 12 25 -2 14 0 25 7 25 5 0 8 7 5
15 -3 8 4 28 15 44 12 16 21 33 21 38 0 5 16 32 35 59 19 27 35 57 35 66 0 9
5 20 10 23 6 3 10 17 10 30 0 13 5 27 10 30 6 4 8 11 5 16 -4 5 -1 9 5 9 6 0
10 20 9 51 -2 32 2 54 10 59 10 5 10 13 2 27 -5 11 -8 23 -5 26 6 6 7 111 1
147 -48 284 -98 439 -241 744 -30 63 -91 176 -184 338 -22 39 -88 139 -163
247 -24 35 -48 71 -54 79 -5 9 -22 30 -37 47 -16 16 -28 33 -28 37 0 4 -6 13
-13 20 -7 7 -40 45 -72 83 -33 39 -65 76 -72 83 -7 8 -26 30 -41 50 -53 70
-389 397 -442 430 -14 9 -34 25 -45 37 -11 11 -40 36 -65 55 -57 45 -76 60
-106 88 -14 12 -28 22 -32 22 -4 0 -21 14 -39 30 -18 17 -37 30 -42 30 -6 0
-11 3 -11 8 0 4 -17 16 -37 27 -20 11 -42 25 -49 32 -6 7 -57 40 -113 73 -55
34 -103 66 -107 72 -4 6 2 5 16 -2 12 -6 28 -9 36 -6 16 6 64 -13 64 -26 0 -4
6 -8 13 -8 7 0 18 -9 25 -20 7 -11 21 -20 31 -20 10 0 21 -6 24 -13 3 -8 31
-26 64 -41 32 -16 71 -35 86 -43 16 -8 54 -17 85 -18 85 -5 130 -23 171 -69
61 -67 105 -105 114 -99 6 4 8 -1 4 -11 -5 -13 -3 -17 6 -13 7 3 19 -3 25 -13
6 -11 28 -27 49 -36 21 -10 40 -20 43 -23 3 -4 19 -13 35 -21 17 -8 38 -21 48
-29 9 -8 17 -11 17 -6 0 4 7 1 16 -6 9 -8 22 -14 28 -14 29 -1 165 -76 171
-95 3 -11 11 -20 17 -20 6 0 9 -3 5 -6 -6 -7 29 -79 53 -107 8 -10 15 -21 15
-25 2 -26 65 -122 108 -166 29 -29 66 -70 82 -91 17 -22 47 -57 68 -79 21 -22
48 -58 59 -79 22 -43 64 -91 71 -79 2 4 2 1 1 -5 -2 -7 -1 -20 3 -29 5 -13 7
-13 14 -2 6 9 9 7 9 -9 0 -13 5 -23 10 -23 6 0 10 -9 10 -19 0 -10 7 -21 15
-25 8 -3 15 -15 15 -26 0 -11 5 -20 10 -20 6 0 10 -6 11 -12 0 -7 25 -33 55
-58 30 -25 62 -52 72 -60 23 -19 107 -148 116 -177 4 -13 12 -23 18 -23 5 0 7
-7 4 -16 -4 -11 -2 -15 8 -11 10 4 13 1 9 -9 -3 -7 0 -14 7 -14 8 0 10 9 6 28
-4 15 -7 33 -8 40 -1 7 -8 10 -15 8 -8 -3 -12 -2 -9 2 7 12 -16 71 -46 117
-14 22 -50 59 -79 82 -60 46 -77 65 -98 106 -8 15 -18 27 -23 27 -5 0 -7 4 -3
9 3 5 -2 17 -11 25 -8 9 -13 16 -10 16 13 0 -54 117 -83 144 -17 17 -31 35
-31 42 0 7 -18 32 -40 55 -22 23 -40 46 -40 50 0 4 -4 9 -8 11 -14 6 -82 101
-82 115 0 7 -18 33 -39 56 -38 40 -80 126 -132 265 -38 100 -60 120 -157 143
-88 20 -146 51 -190 100 -15 17 -52 48 -82 69 -30 21 -82 66 -115 100 -72 74
-95 87 -188 106 -117 25 -209 69 -282 135 -66 60 -112 89 -140 89 -36 0 -225
83 -264 116 -29 25 -69 44 -138 65 -124 38 -240 91 -322 146 -67 45 -98 58
-221 93 -41 11 -109 33 -150 47 -96 33 -168 51 -253 63 -126 19 -501 41 -657
40 -248 -2 -576 8 -617 19 -45 13 -241 12 -298 0z m-1404 -625 c-90 -46 -175
-93 -191 -104 -15 -11 -31 -20 -35 -20 -11 0 -257 -165 -282 -189 -12 -11 -25
-21 -29 -21 -7 0 -120 -84 -134 -100 -3 -3 -27 -23 -55 -45 -27 -22 -51 -43
-53 -47 -2 -5 -8 -8 -13 -8 -5 0 -17 -8 -28 -17 -10 -10 -47 -45 -82 -77 -209
-194 -499 -496 -499 -521 0 -4 -8 -15 -18 -24 -29 -25 -206 -261 -237 -316
-16 -27 -54 -88 -86 -135 -164 -244 -328 -575 -443 -891 -50 -140 -131 -405
-141 -465 -4 -21 -15 -72 -26 -112 -27 -107 -66 -353 -85 -537 -13 -127 -15
-231 -11 -515 2 -195 7 -364 10 -375 3 -11 8 -51 12 -90 8 -81 7 -76 40 -265
44 -249 130 -563 212 -775 65 -168 147 -360 160 -376 7 -8 13 -19 13 -24 0
-11 68 -142 90 -174 45 -65 110 -173 151 -251 24 -47 46 -87 49 -90 3 -3 14
-21 24 -40 10 -19 26 -44 35 -55 9 -11 32 -42 51 -70 34 -49 136 -186 162
-215 7 -9 44 -51 81 -95 117 -137 136 -157 149 -149 7 4 8 3 4 -5 -7 -11 233
-258 320 -331 17 -14 52 -43 79 -65 27 -22 67 -56 89 -75 23 -19 66 -53 96
-75 30 -21 57 -42 60 -45 11 -11 127 -96 170 -124 261 -168 489 -283 815 -411
66 -26 122 -50 125 -53 3 -2 -13 -2 -35 2 -30 5 -36 4 -25 -4 11 -8 8 -9 -15
-4 -16 4 -32 8 -34 10 -2 2 -11 -1 -18 -8 -11 -9 -16 -9 -23 2 -4 7 -15 10
-23 7 -9 -3 -17 -2 -19 3 -2 4 -21 9 -43 11 -22 1 -44 5 -50 8 -29 16 -80 29
-83 21 -2 -5 -15 5 -30 21 -65 72 -105 108 -113 103 -5 -3 -9 2 -9 10 0 9 -3
15 -7 14 -5 -1 -30 8 -56 20 -27 12 -53 20 -58 16 -5 -3 -9 0 -9 6 0 6 -5 8
-10 5 -6 -3 -10 -2 -10 2 0 5 -24 20 -54 33 -30 13 -52 28 -49 34 4 5 -1 7
-11 3 -12 -5 -31 4 -58 27 -22 19 -59 44 -83 55 -23 11 -49 26 -56 33 -21 20
-89 63 -144 91 -28 14 -60 33 -72 44 -24 20 -115 76 -123 75 -3 -1 -8 8 -12
19 -4 11 -12 17 -18 14 -5 -3 -10 -2 -10 4 0 5 -10 13 -22 16 -13 4 -40 20
-60 36 -20 16 -42 29 -47 29 -6 0 -11 5 -11 10 0 6 -16 26 -35 46 -19 19 -35
31 -35 27 0 -3 -13 6 -29 21 -16 15 -33 29 -38 29 -4 1 -7 4 -6 7 0 3 -15 16
-34 30 -19 14 -69 58 -111 97 -42 40 -80 73 -84 73 -5 0 -8 5 -8 11 0 16 -26
39 -44 39 -8 0 -20 9 -26 19 -5 11 -31 42 -57 69 -27 27 -61 66 -77 86 -17 20
-53 61 -80 91 -77 82 -151 166 -178 200 -12 17 -35 42 -50 57 -16 15 -28 32
-28 37 0 5 -9 13 -20 16 -12 4 -20 15 -20 29 0 13 -7 29 -15 36 -8 7 -15 18
-15 26 0 7 -18 32 -40 56 -22 24 -40 49 -40 56 0 6 -4 12 -10 12 -5 0 -10 5
-10 11 0 16 -57 79 -64 72 -3 -4 -6 0 -6 9 0 8 -9 23 -20 33 -11 10 -17 22
-14 26 3 5 0 9 -5 9 -6 0 -11 5 -11 11 0 7 -10 20 -22 30 -11 11 -18 22 -15
25 3 4 -2 14 -12 23 -10 9 -26 39 -36 66 -10 28 -29 72 -41 99 -13 28 -24 56
-24 63 0 7 -5 13 -11 13 -6 0 -8 7 -5 16 3 8 -5 34 -18 57 -14 23 -26 61 -27
85 -2 24 -6 45 -9 47 -4 2 -7 29 -8 60 -1 31 -10 75 -20 98 -10 23 -22 56 -27
72 -11 40 -5 24 -52 145 -13 35 -25 72 -26 82 -1 10 -8 18 -17 18 -13 0 -13 2
0 11 10 7 11 12 4 15 -7 3 -10 14 -7 25 3 10 0 26 -7 34 -7 8 -14 36 -16 62
-4 53 -11 107 -18 138 -16 69 -49 186 -65 234 -42 122 -50 162 -48 230 1 39 1
67 -1 61 -8 -23 -22 -8 -17 18 6 27 9 128 5 147 -1 6 -2 12 0 15 7 20 7 66 0
85 -5 14 -5 25 0 27 5 2 10 37 10 78 0 145 1 175 11 217 8 39 21 175 21 231 0
12 4 22 8 22 4 0 8 36 9 80 1 44 8 95 16 113 7 17 16 57 19 87 6 55 19 118 58
280 11 47 21 92 23 100 2 8 11 35 19 59 9 24 16 53 16 65 0 12 4 26 9 32 10 9
23 70 42 184 5 36 14 74 19 85 5 11 23 51 39 88 17 38 31 70 31 72 0 2 4 14 9
27 5 13 10 28 11 33 1 6 6 15 11 21 5 6 6 20 2 29 -4 12 -3 16 5 11 14 -8 23
21 17 55 -3 18 0 29 11 33 8 3 12 11 9 17 -4 5 -1 16 7 22 15 12 34 68 42 118
4 23 50 105 67 119 3 3 12 22 20 43 8 22 28 56 46 76 17 21 40 58 49 82 10 24
32 67 51 95 18 28 33 58 33 68 0 9 5 16 10 16 6 0 10 6 10 14 0 16 89 116 103
116 5 0 14 6 22 13 7 6 27 23 45 37 17 14 49 41 70 60 21 19 47 42 59 50 15
10 17 16 8 22 -8 5 -7 8 6 8 9 0 17 7 17 15 0 8 6 15 13 15 6 1 23 15 37 33
14 18 76 84 139 149 74 76 111 121 106 129 -5 7 -4 10 3 5 11 -7 73 49 64 59
-3 3 0 5 7 5 6 0 28 17 49 37 40 41 97 83 112 83 6 0 10 4 10 8 0 5 19 29 43
54 23 25 55 60 70 77 16 17 35 31 43 31 8 0 14 5 14 10 0 6 23 26 50 46 28 20
50 42 50 51 0 8 5 11 10 8 6 -3 10 1 10 9 0 10 18 18 55 26 30 6 53 15 50 20
-3 5 -1 11 5 15 5 3 10 2 10 -4 0 -10 47 5 60 19 11 12 51 30 65 30 8 0 14 5
13 11 -2 6 16 20 38 32 23 12 50 34 60 49 11 16 25 28 32 28 6 0 12 8 13 18 0
10 3 12 6 4 2 -6 9 -10 14 -6 5 3 22 8 36 10 15 3 30 8 33 12 3 4 20 8 37 8
29 2 54 12 130 53 10 5 41 19 68 31 78 34 160 74 163 80 1 3 14 6 28 7 16 0
-39 -33 -135 -83z m-2705 -4238 c0 -13 -4 -22 -8 -20 -9 6 -6 44 3 44 4 0 6
-11 5 -24z"/>
</g>
</svg>
